<mxfile host="65bd71144e">
    <diagram id="3Kqu5hoDcEIuTMSiTPuF" name="Page-1">
        <mxGraphModel dx="593" dy="811" grid="1" gridSize="10" guides="1" tooltips="1" connect="1" arrows="1" fold="1" page="1" pageScale="1" pageWidth="850" pageHeight="1100" background="none" math="0" shadow="0">
            <root>
                <mxCell id="0"/>
                <mxCell id="1" parent="0"/>
                <mxCell id="3" value="" style="html=1;verticalLabelPosition=bottom;align=center;labelBackgroundColor=#000000;verticalAlign=top;strokeWidth=2;strokeColor=#0080F0;shadow=0;dashed=0;shape=mxgraph.ios7.icons.folder;fontSize=16;fillColor=none;" parent="1" vertex="1">
                    <mxGeometry x="150" y="605" width="30" height="19.5" as="geometry"/>
                </mxCell>
                <mxCell id="4" value="" style="endArrow=none;html=1;fontSize=16;entryX=0.596;entryY=1.071;entryDx=0;entryDy=0;entryPerimeter=0;strokeColor=#999999;" parent="1" target="3" edge="1">
                    <mxGeometry width="50" height="50" relative="1" as="geometry">
                        <mxPoint x="168" y="655" as="sourcePoint"/>
                        <mxPoint x="210" y="595" as="targetPoint"/>
                    </mxGeometry>
                </mxCell>
                <mxCell id="5" value="" style="endArrow=none;html=1;fontSize=16;strokeColor=#999999;" parent="1" edge="1">
                    <mxGeometry width="50" height="50" relative="1" as="geometry">
                        <mxPoint x="170" y="640" as="sourcePoint"/>
                        <mxPoint x="269.75" y="654.55" as="targetPoint"/>
                        <Array as="points">
                            <mxPoint x="270" y="639.55"/>
                        </Array>
                    </mxGeometry>
                </mxCell>
                <mxCell id="6" value="" style="endArrow=none;html=1;fontSize=16;strokeColor=#999999;" parent="1" edge="1">
                    <mxGeometry width="50" height="50" relative="1" as="geometry">
                        <mxPoint x="250" y="639.55" as="sourcePoint"/>
                        <mxPoint x="319.75" y="654.55" as="targetPoint"/>
                        <Array as="points">
                            <mxPoint x="320" y="639.55"/>
                        </Array>
                    </mxGeometry>
                </mxCell>
                <mxCell id="7" value="" style="html=1;verticalLabelPosition=bottom;align=center;labelBackgroundColor=none;verticalAlign=top;strokeWidth=2;strokeColor=#0080F0;shadow=0;dashed=0;shape=mxgraph.ios7.icons.document;fontSize=16;fillColor=none;fontColor=#000000;" parent="1" vertex="1">
                    <mxGeometry x="310" y="654.55" width="21" height="30" as="geometry"/>
                </mxCell>
                <mxCell id="8" value=".git" style="html=1;verticalLabelPosition=bottom;align=center;labelBackgroundColor=none;verticalAlign=top;strokeWidth=2;strokeColor=#0080F0;shadow=0;dashed=0;shape=mxgraph.ios7.icons.data;fillColor=none;fontColor=#000000;" parent="1" vertex="1">
                    <mxGeometry x="156" y="655.45" width="24" height="29.099999999999998" as="geometry"/>
                </mxCell>
                <mxCell id="10" value="data" style="html=1;verticalLabelPosition=bottom;align=center;labelBackgroundColor=none;verticalAlign=top;strokeWidth=2;strokeColor=#0080F0;shadow=0;dashed=0;shape=mxgraph.ios7.icons.folder;fontSize=12;fillColor=none;fontColor=#000000;" parent="1" vertex="1">
                    <mxGeometry x="255" y="659.8" width="30" height="19.5" as="geometry"/>
                </mxCell>
                <mxCell id="20" value="" style="rounded=1;whiteSpace=wrap;html=1;fontSize=16;strokeColor=#999999;dashed=1;fillColor=none;" parent="1" vertex="1">
                    <mxGeometry x="208" y="454.1" width="80" height="65" as="geometry"/>
                </mxCell>
                <mxCell id="21" value="" style="html=1;verticalLabelPosition=bottom;align=center;labelBackgroundColor=none;verticalAlign=top;strokeWidth=2;strokeColor=#0080F0;shadow=0;dashed=0;shape=mxgraph.ios7.icons.data;fillColor=none;fontColor=#000000;" parent="1" vertex="1">
                    <mxGeometry x="236" y="470.00000000000006" width="24" height="29.099999999999998" as="geometry"/>
                </mxCell>
                <mxCell id="22" value=".git" style="text;html=1;strokeColor=none;fillColor=none;align=center;verticalAlign=middle;whiteSpace=wrap;rounded=0;" parent="1" vertex="1">
                    <mxGeometry x="228" y="499.09999999999997" width="40" height="20" as="geometry"/>
                </mxCell>
                <mxCell id="23" value="" style="shape=flexArrow;endArrow=classic;html=1;fontColor=#000000;strokeColor=#000000;" parent="1" edge="1">
                    <mxGeometry width="50" height="50" relative="1" as="geometry">
                        <mxPoint x="245" y="574.55" as="sourcePoint"/>
                        <mxPoint x="245" y="534.55" as="targetPoint"/>
                    </mxGeometry>
                </mxCell>
                <mxCell id="25" value="git pull" style="text;html=1;strokeColor=none;fillColor=none;align=center;verticalAlign=middle;whiteSpace=wrap;rounded=0;fontSize=20;fontColor=#000000;" parent="1" vertex="1">
                    <mxGeometry x="414.5" y="474.55" width="65" height="40" as="geometry"/>
                </mxCell>
                <mxCell id="26" value="git push" style="text;html=1;strokeColor=none;fillColor=none;align=center;verticalAlign=middle;whiteSpace=wrap;rounded=0;fontSize=20;fontColor=#000000;" parent="1" vertex="1">
                    <mxGeometry x="280.5" y="534.55" width="79.5" height="40" as="geometry"/>
                </mxCell>
                <mxCell id="30" value="" style="dashed=0;outlineConnect=0;html=1;align=center;labelPosition=center;verticalLabelPosition=bottom;verticalAlign=top;shape=mxgraph.weblogos.github;fontSize=15;" parent="1" vertex="1">
                    <mxGeometry x="210.5" y="364.55" width="75" height="75" as="geometry"/>
                </mxCell>
                <mxCell id="32" value="" style="verticalLabelPosition=bottom;html=1;verticalAlign=top;align=center;strokeColor=none;fillColor=#00BEF2;shape=mxgraph.azure.laptop;pointerEvents=1;fontSize=15;" parent="1" vertex="1">
                    <mxGeometry x="128.5" y="718.67" width="82" height="50" as="geometry"/>
                </mxCell>
                <mxCell id="33" value="" style="endArrow=none;html=1;fontSize=16;strokeColor=#999999;" parent="1" edge="1">
                    <mxGeometry width="50" height="50" relative="1" as="geometry">
                        <mxPoint x="170" y="640" as="sourcePoint"/>
                        <mxPoint x="220.25" y="655" as="targetPoint"/>
                        <Array as="points">
                            <mxPoint x="220.5" y="640"/>
                        </Array>
                    </mxGeometry>
                </mxCell>
                <mxCell id="35" value=".dvc" style="html=1;verticalLabelPosition=bottom;align=center;labelBackgroundColor=none;verticalAlign=top;strokeWidth=2;strokeColor=#0080F0;shadow=0;dashed=0;shape=mxgraph.ios7.icons.data;fillColor=none;fontColor=#000000;" parent="1" vertex="1">
                    <mxGeometry x="208" y="654.5500000000001" width="24" height="29.099999999999998" as="geometry"/>
                </mxCell>
                <mxCell id="36" value="" style="endArrow=none;html=1;fontSize=16;entryX=0.596;entryY=1.071;entryDx=0;entryDy=0;entryPerimeter=0;strokeColor=#999999;" parent="1" edge="1">
                    <mxGeometry width="50" height="50" relative="1" as="geometry">
                        <mxPoint x="270.12" y="729.12" as="sourcePoint"/>
                        <mxPoint x="270" y="700.0045" as="targetPoint"/>
                    </mxGeometry>
                </mxCell>
                <mxCell id="37" value="" style="endArrow=none;html=1;fontSize=16;strokeColor=#999999;" parent="1" edge="1">
                    <mxGeometry width="50" height="50" relative="1" as="geometry">
                        <mxPoint x="270" y="714" as="sourcePoint"/>
                        <mxPoint x="352.25" y="728.67" as="targetPoint"/>
                        <Array as="points">
                            <mxPoint x="352.5" y="713.67"/>
                        </Array>
                    </mxGeometry>
                </mxCell>
                <mxCell id="38" value="" style="endArrow=none;html=1;fontSize=16;strokeColor=#999999;" parent="1" edge="1">
                    <mxGeometry width="50" height="50" relative="1" as="geometry">
                        <mxPoint x="330" y="714" as="sourcePoint"/>
                        <mxPoint x="421.87" y="728.67" as="targetPoint"/>
                        <Array as="points">
                            <mxPoint x="422.12" y="713.67"/>
                        </Array>
                    </mxGeometry>
                </mxCell>
                <mxCell id="43" value=".gitignore" style="html=1;verticalLabelPosition=bottom;align=center;labelBackgroundColor=none;verticalAlign=top;strokeWidth=2;strokeColor=#0080F0;shadow=0;dashed=0;shape=mxgraph.ios7.icons.document;fontSize=12;fillColor=none;fontColor=#000000;" parent="1" vertex="1">
                    <mxGeometry x="259.5" y="728.67" width="21" height="30" as="geometry"/>
                </mxCell>
                <mxCell id="44" value="data1.csv.dvc" style="html=1;verticalLabelPosition=bottom;align=center;labelBackgroundColor=none;verticalAlign=top;strokeWidth=2;strokeColor=#0080F0;shadow=0;dashed=0;shape=mxgraph.ios7.icons.document;fontSize=12;fillColor=none;fontColor=#000000;" parent="1" vertex="1">
                    <mxGeometry x="339" y="728.67" width="21" height="30" as="geometry"/>
                </mxCell>
                <mxCell id="45" value="data1.csv" style="html=1;verticalLabelPosition=bottom;align=center;labelBackgroundColor=none;verticalAlign=top;strokeWidth=2;shadow=0;dashed=0;shape=mxgraph.ios7.icons.document;fontSize=12;fillColor=none;strokeColor=#B3B3B3;fontColor=#000000;" parent="1" vertex="1">
                    <mxGeometry x="412" y="728.67" width="21" height="30" as="geometry"/>
                </mxCell>
                <mxCell id="46" value="" style="rounded=1;whiteSpace=wrap;html=1;fontSize=16;strokeColor=#999999;dashed=1;fillColor=none;" parent="1" vertex="1">
                    <mxGeometry x="120" y="590" width="270" height="210" as="geometry"/>
                </mxCell>
                <mxCell id="47" value="" style="html=1;verticalLabelPosition=bottom;align=center;labelBackgroundColor=#000000;verticalAlign=top;strokeWidth=2;strokeColor=#0080F0;shadow=0;dashed=0;shape=mxgraph.ios7.icons.folder;fontSize=16;fillColor=none;" parent="1" vertex="1">
                    <mxGeometry x="646" y="605" width="30" height="19.5" as="geometry"/>
                </mxCell>
                <mxCell id="48" value="" style="endArrow=none;html=1;fontSize=16;entryX=0.596;entryY=1.071;entryDx=0;entryDy=0;entryPerimeter=0;strokeColor=#999999;" parent="1" target="47" edge="1">
                    <mxGeometry width="50" height="50" relative="1" as="geometry">
                        <mxPoint x="664" y="655" as="sourcePoint"/>
                        <mxPoint x="706" y="595" as="targetPoint"/>
                    </mxGeometry>
                </mxCell>
                <mxCell id="49" value="" style="endArrow=none;html=1;fontSize=16;strokeColor=#999999;" parent="1" edge="1">
                    <mxGeometry width="50" height="50" relative="1" as="geometry">
                        <mxPoint x="666" y="640" as="sourcePoint"/>
                        <mxPoint x="765.75" y="654.55" as="targetPoint"/>
                        <Array as="points">
                            <mxPoint x="766" y="639.55"/>
                        </Array>
                    </mxGeometry>
                </mxCell>
                <mxCell id="50" value="" style="endArrow=none;html=1;fontSize=16;strokeColor=#999999;" parent="1" edge="1">
                    <mxGeometry width="50" height="50" relative="1" as="geometry">
                        <mxPoint x="746" y="639.55" as="sourcePoint"/>
                        <mxPoint x="815.75" y="654.55" as="targetPoint"/>
                        <Array as="points">
                            <mxPoint x="816" y="639.55"/>
                        </Array>
                    </mxGeometry>
                </mxCell>
                <mxCell id="51" value="" style="html=1;verticalLabelPosition=bottom;align=center;labelBackgroundColor=none;verticalAlign=top;strokeWidth=2;strokeColor=#0080F0;shadow=0;dashed=0;shape=mxgraph.ios7.icons.document;fontSize=16;fillColor=none;fontColor=#000000;" parent="1" vertex="1">
                    <mxGeometry x="806" y="654.55" width="21" height="30" as="geometry"/>
                </mxCell>
                <mxCell id="52" value=".git" style="html=1;verticalLabelPosition=bottom;align=center;labelBackgroundColor=none;verticalAlign=top;strokeWidth=2;strokeColor=#0080F0;shadow=0;dashed=0;shape=mxgraph.ios7.icons.data;fillColor=none;fontColor=#000000;" parent="1" vertex="1">
                    <mxGeometry x="652" y="655.45" width="24" height="29.099999999999998" as="geometry"/>
                </mxCell>
                <mxCell id="53" value="data" style="html=1;verticalLabelPosition=bottom;align=center;labelBackgroundColor=none;verticalAlign=top;strokeWidth=2;strokeColor=#0080F0;shadow=0;dashed=0;shape=mxgraph.ios7.icons.folder;fontSize=12;fillColor=none;fontColor=#000000;" parent="1" vertex="1">
                    <mxGeometry x="751" y="659.8" width="30" height="19.5" as="geometry"/>
                </mxCell>
                <mxCell id="54" value="" style="verticalLabelPosition=bottom;html=1;verticalAlign=top;align=center;strokeColor=none;fillColor=#00BEF2;shape=mxgraph.azure.laptop;pointerEvents=1;fontSize=15;" parent="1" vertex="1">
                    <mxGeometry x="636" y="718.67" width="82" height="50" as="geometry"/>
                </mxCell>
                <mxCell id="55" value="" style="endArrow=none;html=1;fontSize=16;strokeColor=#999999;" parent="1" edge="1">
                    <mxGeometry width="50" height="50" relative="1" as="geometry">
                        <mxPoint x="666" y="640" as="sourcePoint"/>
                        <mxPoint x="716.25" y="655" as="targetPoint"/>
                        <Array as="points">
                            <mxPoint x="716.5" y="640"/>
                        </Array>
                    </mxGeometry>
                </mxCell>
                <mxCell id="56" value=".dvc" style="html=1;verticalLabelPosition=bottom;align=center;labelBackgroundColor=none;verticalAlign=top;strokeWidth=2;strokeColor=#0080F0;shadow=0;dashed=0;shape=mxgraph.ios7.icons.data;fillColor=none;fontColor=#000000;" parent="1" vertex="1">
                    <mxGeometry x="704" y="654.5500000000001" width="24" height="29.099999999999998" as="geometry"/>
                </mxCell>
                <mxCell id="57" value="" style="endArrow=none;html=1;fontSize=16;entryX=0.596;entryY=1.071;entryDx=0;entryDy=0;entryPerimeter=0;strokeColor=#999999;" parent="1" edge="1">
                    <mxGeometry width="50" height="50" relative="1" as="geometry">
                        <mxPoint x="766.1199999999999" y="729.1199999999999" as="sourcePoint"/>
                        <mxPoint x="766" y="700.0045" as="targetPoint"/>
                    </mxGeometry>
                </mxCell>
                <mxCell id="58" value="" style="endArrow=none;html=1;fontSize=16;strokeColor=#999999;" parent="1" edge="1">
                    <mxGeometry width="50" height="50" relative="1" as="geometry">
                        <mxPoint x="766" y="714" as="sourcePoint"/>
                        <mxPoint x="848.25" y="728.6700000000001" as="targetPoint"/>
                        <Array as="points">
                            <mxPoint x="848.5" y="713.67"/>
                        </Array>
                    </mxGeometry>
                </mxCell>
                <mxCell id="59" value="" style="endArrow=none;html=1;fontSize=16;strokeColor=#999999;" parent="1" edge="1">
                    <mxGeometry width="50" height="50" relative="1" as="geometry">
                        <mxPoint x="826" y="714" as="sourcePoint"/>
                        <mxPoint x="917.8699999999999" y="728.6700000000001" as="targetPoint"/>
                        <Array as="points">
                            <mxPoint x="918.12" y="713.67"/>
                        </Array>
                    </mxGeometry>
                </mxCell>
                <mxCell id="60" value=".gitignore" style="html=1;verticalLabelPosition=bottom;align=center;labelBackgroundColor=none;verticalAlign=top;strokeWidth=2;strokeColor=#0080F0;shadow=0;dashed=0;shape=mxgraph.ios7.icons.document;fontSize=12;fillColor=none;fontColor=#000000;" parent="1" vertex="1">
                    <mxGeometry x="755.5" y="728.67" width="21" height="30" as="geometry"/>
                </mxCell>
                <mxCell id="61" value="data1.csv.dvc" style="html=1;verticalLabelPosition=bottom;align=center;labelBackgroundColor=none;verticalAlign=top;strokeWidth=2;strokeColor=#0080F0;shadow=0;dashed=0;shape=mxgraph.ios7.icons.document;fontSize=12;fillColor=none;fontColor=#000000;" parent="1" vertex="1">
                    <mxGeometry x="835" y="728.67" width="21" height="30" as="geometry"/>
                </mxCell>
                <mxCell id="62" value="data1.csv" style="html=1;verticalLabelPosition=bottom;align=center;labelBackgroundColor=none;verticalAlign=top;strokeWidth=2;shadow=0;dashed=0;shape=mxgraph.ios7.icons.document;fontSize=12;fillColor=none;strokeColor=#B3B3B3;fontColor=#000000;" parent="1" vertex="1">
                    <mxGeometry x="908" y="728.67" width="21" height="30" as="geometry"/>
                </mxCell>
                <mxCell id="63" value="" style="rounded=1;whiteSpace=wrap;html=1;fontSize=16;strokeColor=#999999;dashed=1;fillColor=none;" parent="1" vertex="1">
                    <mxGeometry x="620" y="590" width="270" height="210" as="geometry"/>
                </mxCell>
                <mxCell id="65" value="&lt;font color=&quot;#ffffff&quot;&gt;Cloud&lt;/font&gt;" style="html=1;strokeColor=none;fillColor=#0079D6;labelPosition=center;verticalLabelPosition=middle;verticalAlign=top;align=center;fontSize=12;outlineConnect=0;spacingTop=-6;fontColor=#000000;shape=mxgraph.sitemap.cloud;labelBackgroundColor=none;" parent="1" vertex="1">
                    <mxGeometry x="704" y="374.55" width="102" height="65" as="geometry"/>
                </mxCell>
                <mxCell id="66" value="data1.csv" style="html=1;verticalLabelPosition=bottom;align=center;labelBackgroundColor=none;verticalAlign=top;strokeWidth=2;shadow=0;dashed=0;shape=mxgraph.ios7.icons.document;fontSize=12;fillColor=none;strokeColor=#B3B3B3;fontColor=#000000;" parent="1" vertex="1">
                    <mxGeometry x="744.5" y="454.55" width="21" height="30" as="geometry"/>
                </mxCell>
                <mxCell id="68" value="" style="shape=flexArrow;endArrow=classic;html=1;fontColor=#000000;strokeColor=#000000;" parent="1" edge="1">
                    <mxGeometry width="50" height="50" relative="1" as="geometry">
                        <mxPoint x="300" y="490" as="sourcePoint"/>
                        <mxPoint x="620" y="600" as="targetPoint"/>
                    </mxGeometry>
                </mxCell>
                <mxCell id="69" value="" style="endArrow=classic;html=1;fontSize=12;strokeColor=#00CC00;" parent="1" edge="1">
                    <mxGeometry width="50" height="50" relative="1" as="geometry">
                        <mxPoint x="450" y="710" as="sourcePoint"/>
                        <mxPoint x="704" y="490" as="targetPoint"/>
                    </mxGeometry>
                </mxCell>
                <mxCell id="70" value="" style="endArrow=classic;html=1;fontSize=12;strokeColor=#00CC00;" parent="1" edge="1">
                    <mxGeometry width="50" height="50" relative="1" as="geometry">
                        <mxPoint x="786" y="470" as="sourcePoint"/>
                        <mxPoint x="916" y="700" as="targetPoint"/>
                        <Array as="points">
                            <mxPoint x="916" y="470"/>
                        </Array>
                    </mxGeometry>
                </mxCell>
                <mxCell id="71" value="dvc push" style="text;html=1;strokeColor=none;fillColor=none;align=center;verticalAlign=middle;whiteSpace=wrap;rounded=0;labelBackgroundColor=none;fontSize=17;fontColor=#00CC00;" parent="1" vertex="1">
                    <mxGeometry x="399.5" y="604.5" width="95" height="20" as="geometry"/>
                </mxCell>
                <mxCell id="72" value="dvc pull" style="text;html=1;strokeColor=none;fillColor=none;align=center;verticalAlign=middle;whiteSpace=wrap;rounded=0;labelBackgroundColor=none;fontSize=17;fontColor=#00CC00;" parent="1" vertex="1">
                    <mxGeometry x="806" y="520" width="95" height="20" as="geometry"/>
                </mxCell>
            </root>
        </mxGraphModel>
    </diagram>
</mxfile>